<svg width="1702" height="1702" viewBox="0 0 1702 1702" fill="none" xmlns="http://www.w3.org/2000/svg">
<path d="M841.404 1151.07V1200.35M841.404 1151.07L798.716 1126.42L756.028 1151.07V1200.35L798.716 1225L841.404 1200.35M841.404 1151.07L884.092 1126.42L926.78 1151.07M841.404 1200.35L884.092 1225L926.78 1200.35M926.78 1151.07V1200.35M926.78 1151.07L969.468 1126.42L1012.16 1151.07M926.78 1200.35L969.468 1225L1012.16 1200.35M798.716 1125.82L756.028 1150.47L713.34 1125.82V1076.53L756.028 1051.89L798.716 1076.53M798.716 1125.82V1076.53M798.716 1125.82L841.404 1150.47L884.092 1125.82M798.716 1076.53L841.404 1051.89L884.092 1076.53M884.092 1125.82V1076.53M884.092 1125.82L926.78 1150.47L969.468 1125.82M884.092 1076.53L926.78 1051.89L969.468 1076.53M756.028 1051.39L713.34 1076.04L670.653 1051.39V1002.1L713.34 977.457L756.028 1002.1M756.028 1051.39V1002.1M756.028 1051.39L798.716 1076.04L841.404 1051.39M756.028 1002.1L798.716 977.457L841.404 1002.1M841.404 1051.39V1002.1M841.404 1051.39L884.092 1076.04L926.78 1051.39M841.404 1002.1L884.092 977.457L926.78 1002.1M628.064 827.898L585.376 852.543L542.688 827.898V778.608L585.376 753.963L628.064 778.608M628.064 827.898V778.608M628.064 827.898L670.752 852.543L713.44 827.898V778.608L670.752 753.963L628.064 778.608M585.376 753.466L542.688 778.111L500 753.466V704.176L542.688 679.531L585.376 704.176M585.376 753.466V704.176M585.376 753.466L628.064 778.111L670.752 753.466V704.176L628.064 679.531L585.376 704.176M1012.16 1200.35V1151.07M1012.16 1200.35L1054.84 1225L1097.53 1200.35M1012.16 1151.07L1054.84 1126.42L1097.53 1151.07M969.468 1125.82V1076.53M969.468 1125.82L1012.16 1150.47L1054.84 1125.82M969.468 1076.53L1012.16 1051.89L1054.84 1076.53M926.78 1051.39V1002.1M926.78 1051.39L969.468 1076.04L1012.16 1051.39M926.78 1002.1L969.468 977.457L1012.16 1002.1M798.716 976.861L756.028 1001.51L713.34 976.861V927.571L756.028 902.926L798.716 927.571M798.716 976.861V927.571M798.716 976.861L841.404 1001.51L884.092 976.861M798.716 927.571L841.404 902.926L884.092 927.571M884.092 976.861V927.571M884.092 976.861L926.78 1001.51L969.468 976.861M884.092 927.571L926.78 902.926L969.468 927.571M756.028 902.429L713.34 927.074L670.653 902.429V853.139L713.34 828.494L756.028 853.139M756.028 902.429V853.139M756.028 902.429L798.716 927.074L841.404 902.429M756.028 853.139L798.716 828.494L841.404 853.139M841.404 902.429V853.139M841.404 902.429L884.092 927.074L926.78 902.429M841.404 853.139L884.092 828.494L926.78 853.139M1182.91 1151.07L1225.6 1126.42L1268.28 1151.07V1200.35L1225.6 1225L1182.91 1200.35M1182.91 1151.07V1200.35M1182.91 1151.07L1140.22 1126.42L1097.53 1151.07M1182.91 1200.35L1140.22 1225L1097.53 1200.35M1097.53 1151.07V1200.35M1140.22 1076.53L1182.91 1051.89L1225.6 1076.53M1140.22 1076.53V1125.82M1140.22 1076.53L1097.53 1051.89L1054.84 1076.53M1225.6 1076.53V1125.82M1225.6 1076.53L1268.28 1051.89L1310.97 1076.53V1125.82L1268.28 1150.47L1225.6 1125.82M1140.22 1125.82L1182.91 1150.47L1225.6 1125.82M1140.22 1125.82L1097.53 1150.47L1054.84 1125.82M1054.84 1076.53V1125.82M1097.53 1002.1L1140.22 977.457L1182.91 1002.1M1097.53 1002.1V1051.39M1097.53 1002.1L1054.84 977.457L1012.16 1002.1M1182.91 1002.1V1051.39M1182.91 1002.1L1225.6 977.457L1268.28 1002.1V1051.39L1225.6 1076.04L1182.91 1051.39M1097.53 1051.39L1140.22 1076.04L1182.91 1051.39M1097.53 1051.39L1054.84 1076.04L1012.16 1051.39M1012.16 1002.1V1051.39M1054.84 927.571L1097.53 902.926L1140.22 927.571M1054.84 927.571V976.861M1054.84 927.571L1012.16 902.926L969.468 927.571M1140.22 927.571V976.861M1140.22 927.571L1182.91 902.926L1225.6 927.571M1054.84 976.861L1097.53 1001.51L1140.22 976.861M1054.84 976.861L1012.16 1001.51L969.468 976.861M969.468 927.571V976.861M1140.22 976.861L1182.91 1001.51L1225.6 976.861M1225.6 976.861V927.571M1225.6 976.861L1268.28 1001.51L1310.97 976.861V927.571L1268.28 902.926L1225.6 927.571M1012.16 853.139L1054.84 828.494L1097.53 853.139M1012.16 853.139V902.429M1012.16 853.139L969.468 828.494L926.78 853.139M1097.53 853.139V902.429M1097.53 853.139L1140.22 828.494L1182.91 853.139M1012.16 902.429L1054.84 927.074L1097.53 902.429M1012.16 902.429L969.468 927.074L926.78 902.429M926.78 853.139V902.429M1097.53 902.429L1140.22 927.074L1182.91 902.429M1182.91 902.429V853.139M1182.91 902.429L1225.6 927.074L1268.28 902.429V853.139L1225.6 828.494L1182.91 853.139M969.468 778.608L1012.16 753.963L1054.84 778.608M969.468 778.608V827.898M969.468 778.608L926.78 753.963L884.092 778.608M1054.84 778.608V827.898M1054.84 778.608L1097.53 753.963L1140.22 778.608M969.468 827.898L1012.16 852.543L1054.84 827.898M969.468 827.898L926.78 852.543L884.092 827.898M884.092 778.608L841.404 753.963L798.716 778.608M884.092 778.608V827.898M1054.84 827.898L1097.53 852.543L1140.22 827.898M884.092 827.898L841.404 852.543L798.716 827.898M1140.22 827.898V778.608M1140.22 827.898L1182.91 852.543L1225.6 827.898M1140.22 778.608L1182.91 753.963L1225.6 778.608M926.78 704.176L969.468 679.531L1012.16 704.176M926.78 704.176V753.466M926.78 704.176L884.092 679.531L841.404 704.176M1012.16 704.176V753.466M1012.16 704.176L1054.84 679.531L1097.53 704.176M926.78 753.466L969.468 778.111L1012.16 753.466M926.78 753.466L884.092 778.111L841.404 753.466M841.404 704.176L798.716 679.531L756.028 704.176M841.404 704.176V753.466M1012.16 753.466L1054.84 778.111L1097.53 753.466M841.404 753.466L798.716 778.111L756.028 753.466M1097.53 753.466V704.176M1097.53 753.466L1140.22 778.111L1182.91 753.466M1097.53 704.176L1140.22 679.531L1182.91 704.176M884.092 629.645L926.78 605L969.468 629.645M884.092 629.645V678.935M884.092 629.645L841.404 605L798.716 629.645M969.468 629.645V678.935M969.468 629.645L1012.16 605L1054.84 629.645M884.092 678.935L926.78 703.58L969.468 678.935M884.092 678.935L841.404 703.58L798.716 678.935M798.716 629.645L756.028 605L713.34 629.645V678.935L756.028 703.58L798.716 678.935M798.716 629.645V678.935M969.468 678.935L1012.16 703.58L1054.84 678.935M1054.84 678.935V629.645M1054.84 678.935L1097.53 703.58L1140.22 678.935M1054.84 629.645L1097.53 605L1140.22 629.645M1353.56 1200.35L1310.87 1225L1268.18 1200.35V1151.07L1310.87 1126.42L1353.56 1151.07M1353.56 1200.35V1151.07M1353.56 1200.35L1396.25 1225L1438.94 1200.35V1151.07L1396.25 1126.42L1353.56 1151.07M1225.6 827.898V778.608M1225.6 827.898L1268.28 852.543L1310.97 827.898V778.608L1268.28 753.963L1225.6 778.608M1182.91 753.466V704.176M1182.91 753.466L1225.6 778.111L1268.28 753.466V704.176L1225.6 679.531L1182.91 704.176M1140.22 678.935V629.645M1140.22 678.935L1182.91 703.58L1225.6 678.935M1140.22 629.645L1182.91 605L1225.6 629.645M1396.25 1125.82L1353.56 1150.47L1310.87 1125.82V1076.53L1353.56 1051.89L1396.25 1076.53M1396.25 1125.82V1076.53M1396.25 1125.82L1438.94 1150.47L1481.62 1125.82M1396.25 1076.53L1438.94 1051.89L1481.62 1076.53M1481.62 1125.82V1076.53M1481.62 1125.82L1524.31 1150.57L1567 1125.92V1076.63L1524.31 1051.89L1481.62 1076.53M1353.56 1051.39L1310.87 1076.04L1268.18 1051.39V1002.1L1310.87 977.457L1353.56 1002.1M1353.56 1051.39V1002.1M1353.56 1051.39L1396.25 1076.04L1438.94 1051.39M1353.56 1002.1L1396.25 977.457L1438.94 1002.1M1438.94 1051.39V1002.1M1438.94 1051.39L1481.62 1076.04L1524.31 1051.39V1002.1L1481.62 977.457L1438.94 1002.1M1225.6 678.935V629.645M1225.6 678.935L1268.28 703.58L1310.97 678.935V629.645L1268.28 605L1225.6 629.645M1353.56 902.429L1310.87 927.074L1268.18 902.429V853.139L1310.87 828.494L1353.56 853.139M1353.56 902.429V853.139M1353.56 902.429L1396.25 927.074L1438.94 902.429V853.139L1396.25 828.494L1353.56 853.139M798.716 827.898L756.028 852.543L713.34 827.898V778.608L756.028 753.963L798.716 778.608M798.716 827.898V778.608M756.028 753.466L713.34 778.111L670.653 753.466V704.176L713.34 679.531L756.028 704.176M756.028 753.466V704.176M670.752 902.926L628.064 927.571V976.861L670.752 1001.51L713.44 976.861V927.571L670.752 902.926ZM628.064 828.494L585.376 853.139V902.429L628.064 927.074L670.752 902.429V853.139L628.064 828.494ZM1353.56 902.926L1310.87 927.571V976.861L1353.56 1001.61L1396.25 976.96V927.67L1353.56 902.926ZM1438.94 902.926L1396.25 927.571V976.861L1438.94 1001.61L1481.62 976.96V927.67L1438.94 902.926ZM1353.56 753.963L1310.87 778.608V827.898L1353.56 852.543L1396.25 827.898V778.608L1353.56 753.963ZM1310.87 679.531L1268.18 704.176V753.466L1310.87 778.111L1353.56 753.466V704.176L1310.87 679.531ZM670.752 605L628.064 629.645V678.935L670.752 703.58L713.44 678.935V629.645L670.752 605Z" stroke="url(#paint0_linear_7189_158)" stroke-opacity="0.03" stroke-width="2" stroke-miterlimit="10"/>
<g filter="url(#filter0_f_7189_158)">
<path d="M1202 851C1202 1044.85 1044.85 1202 851 1202C657.148 1202 500 1044.85 500 851C500 657.148 657.148 500 851 500C1044.85 500 1202 657.148 1202 851Z" fill="#00C3FF" fill-opacity="0.2"/>
</g>
<defs>
<filter id="filter0_f_7189_158" x="0" y="0" width="1702" height="1702" filterUnits="userSpaceOnUse" color-interpolation-filters="sRGB">
<feFlood flood-opacity="0" result="BackgroundImageFix"/>
<feBlend mode="normal" in="SourceGraphic" in2="BackgroundImageFix" result="shape"/>
<feGaussianBlur stdDeviation="250" result="effect1_foregroundBlur_7189_158"/>
</filter>
<linearGradient id="paint0_linear_7189_158" x1="498.989" y1="915.034" x2="1567.99" y2="915.034" gradientUnits="userSpaceOnUse">
<stop stop-color="#6EC4CD"/>
<stop offset="0.103" stop-color="#6DC1CC"/>
<stop offset="0.1753" stop-color="#6AB8C7"/>
<stop offset="0.2383" stop-color="#64A8C0"/>
<stop offset="0.2959" stop-color="#5D92B6"/>
<stop offset="0.3498" stop-color="#5376A9"/>
<stop offset="0.4003" stop-color="#475498"/>
<stop offset="0.4378" stop-color="#3C358A"/>
<stop offset="0.4531" stop-color="#42368B"/>
<stop offset="0.4731" stop-color="#523B8D"/>
<stop offset="0.4957" stop-color="#6D4290"/>
<stop offset="0.5202" stop-color="#934B95"/>
<stop offset="0.5461" stop-color="#C3579A"/>
<stop offset="0.553" stop-color="#D15B9C"/>
<stop offset="0.5666" stop-color="#BF5492" stop-opacity="0.9694"/>
<stop offset="0.6033" stop-color="#924378" stop-opacity="0.8873"/>
<stop offset="0.6428" stop-color="#6B3462" stop-opacity="0.7991"/>
<stop offset="0.6844" stop-color="#4A2750" stop-opacity="0.706"/>
<stop offset="0.7289" stop-color="#2F1D40" stop-opacity="0.6065"/>
<stop offset="0.7773" stop-color="#1B1535" stop-opacity="0.4983"/>
<stop offset="0.8315" stop-color="#0C0F2C" stop-opacity="0.3769"/>
<stop offset="0.8964" stop-color="#040C27" stop-opacity="0.2319"/>
<stop offset="1" stop-color="#010B26" stop-opacity="0"/>
</linearGradient>
</defs>
</svg>
